<svg width="93.63" height="122.88" xmlns="http://www.w3.org/2000/svg" data-name="Layer 1">

 <title>padlock</title>
 <g>
  <title>Layer 1</title>
  <path id="svg_1" fill-rule="evenodd" fill="#ffb000" d="m6,47.51l81.64,0a6,6 0 0 1 6,6l0,63.38a6,6 0 0 1 -6,6l-81.64,0a6,6 0 0 1 -6,-6l0,-63.39a6,6 0 0 1 6,-6l0,0.01z" class="cls-1"/>
  <path stroke-width="3" id="svg_3" fill="#262e33" fill-rule="evenodd" d="m83.57,47.51l-11.35,0l0,-9.42a27.32,27.32 0 0 0 -7.54,-19a24.4,24.4 0 0 0 -35.73,0a27.32,27.32 0 0 0 -7.54,19l0,9.42l-11.35,0l0,-9.42a38.73,38.73 0 0 1 10.72,-26.81a35.69,35.69 0 0 1 52.07,0a38.67,38.67 0 0 1 10.72,26.81l0,9.42z" class="cls-2"/>
 </g>
</svg>